<svg version="1.1" id="Layer_1" xmlns="http://www.w3.org/2000/svg" xmlns:xlink="http://www.w3.org/1999/xlink" x="0px" y="0px"
	 width="100%" viewBox="0 0 225 225" enable-background="new 0 0 225 225" xml:space="preserve">
<path fill="#CC858A" opacity="1.000000" stroke="none" 
	d="
M92.000000,226.000000 
	C61.717194,226.000000 31.434387,226.000000 1.000000,226.000000 
	C1.000000,168.979187 1.000000,111.958252 1.387280,54.494862 
	C8.716928,56.378769 15.662827,58.694653 22.601049,61.033310 
	C51.812767,70.879654 80.997047,80.808472 110.249710,90.531578 
	C117.798172,93.040550 125.558807,94.911156 133.193436,97.451256 
	C132.607849,99.392181 131.828476,100.915611 131.529373,102.528130 
	C129.361969,114.212860 122.275536,120.549881 110.895210,123.659142 
	C102.342499,125.995865 94.260498,130.055466 85.867989,133.388184 
	C84.690147,131.171860 83.846298,129.368484 82.814537,127.679947 
	C78.427742,120.500618 70.782089,117.662834 63.525654,120.951080 
	C52.006454,126.170982 40.560741,131.565872 29.221556,137.165421 
	C22.382076,140.542908 19.485823,148.160034 22.022371,155.431091 
	C23.112049,158.554688 24.568289,161.616104 26.293764,164.439468 
	C30.878675,171.941635 38.666462,174.254501 46.621693,170.504639 
	C60.175354,164.115784 73.681786,157.625824 87.174683,151.109253 
	C97.382538,146.179199 107.538368,141.141434 118.575378,135.731003 
	C117.902657,137.693893 117.612236,138.610718 117.276543,139.510666 
	C108.429169,163.228745 99.688545,186.987701 90.643806,210.630310 
	C88.507812,216.213715 88.701599,221.125946 92.000000,226.000000 
z"/>
<path fill="#CC858A" opacity="1.000000"
	d="
M133.221985,97.074997 
	C125.558807,94.911156 117.798172,93.040550 110.249710,90.531578 
	C80.997047,80.808472 51.812767,70.879654 22.601049,61.033310 
	C15.662827,58.694653 8.716928,56.378769 1.387280,54.026203 
	C1.000000,36.368214 1.000000,18.736427 1.000000,1.000000 
	C57.020851,1.000000 113.041771,1.000000 169.392517,1.331653 
	C168.476761,5.331493 167.231155,8.999679 165.839020,13.004842 
	C161.806412,23.444544 157.946167,33.557289 154.028564,43.647778 
	C147.111450,61.464001 140.159409,79.266663 133.221985,97.074997 
z"/>
<path fill="#CC858A" opacity="1.000000" stroke="none" 
	d="
M226.000000,119.000000 
	C226.000000,154.591141 226.000000,190.182266 226.000000,226.000000 
	C192.979446,226.000000 159.958389,226.000000 126.387238,225.624313 
	C129.827499,214.138489 133.805222,203.023788 137.812225,191.919662 
	C140.897064,183.371063 137.975967,175.956009 129.830490,171.901566 
	C127.929565,170.955383 125.946785,170.173630 123.690117,169.178879 
	C127.695755,155.563339 131.602814,142.182373 135.619598,128.834442 
	C135.916931,127.846428 136.828995,126.739510 137.749496,126.288788 
	C150.443451,120.073051 163.189026,113.962784 176.205948,108.075188 
	C181.922272,109.789337 187.298752,111.524742 192.798721,112.663734 
	C203.830093,114.948235 214.928986,116.906860 226.000000,119.000000 
z"/>
<path fill="#CC858A" opacity="1.000000" stroke="none" 
	d="
M165.985565,12.667866 
	C167.231155,8.999679 168.476761,5.331493 169.861176,1.331653 
	C188.605057,1.000000 207.210129,1.000000 226.000000,1.000000 
	C226.000000,26.353928 226.000000,51.708305 225.638672,77.379684 
	C224.501144,77.975868 223.715988,78.232529 222.950043,78.537498 
	C200.649872,87.416412 178.351624,96.300140 155.913498,104.844467 
	C151.877747,103.334000 147.981552,102.162163 144.077927,100.607521 
	C152.094711,72.964676 160.094620,45.697422 168.181274,18.455919 
	C168.977615,15.773300 169.483322,13.555664 165.985565,12.667866 
z"/>
<path fill="#492132" opacity="1.000000" stroke="none" 
	d="
M165.839020,13.004843 
	C169.483322,13.555664 168.977615,15.773300 168.181274,18.455919 
	C160.094620,45.697422 152.094711,72.964676 143.878906,100.919647 
	C142.774277,104.530060 141.861252,107.445518 140.512329,111.752846 
	C146.536377,109.206215 151.294724,107.194656 156.053070,105.183098 
	C178.351624,96.300140 200.649872,87.416412 222.950043,78.537498 
	C223.715988,78.232529 224.501144,77.975868 225.638672,77.848343 
	C226.000000,79.066673 226.000000,80.133339 225.662964,81.662254 
	C223.553818,83.323273 221.886490,84.728920 219.992950,85.687996 
	C205.327240,93.116158 190.617844,100.458054 175.921951,107.826660 
	C163.189026,113.962784 150.443451,120.073051 137.749496,126.288788 
	C136.828995,126.739510 135.916931,127.846428 135.619598,128.834442 
	C131.602814,142.182373 127.695755,155.563339 123.690117,169.178879 
	C125.946785,170.173630 127.929565,170.955383 129.830490,171.901566 
	C137.975967,175.956009 140.897064,183.371063 137.812225,191.919662 
	C133.805222,203.023788 129.827499,214.138489 125.918579,225.624313 
	C122.307091,226.000000 118.614182,226.000000 114.651329,225.701721 
	C115.516899,224.093231 117.127525,222.963867 117.706718,221.441956 
	C120.392441,214.384705 122.792023,207.218567 125.539261,199.840164 
	C127.032654,196.160812 128.236267,192.715652 129.541092,189.309235 
	C130.957764,185.610840 130.525833,182.463150 127.042809,180.141937 
	C121.897232,176.712769 115.376541,175.870850 112.548775,178.379654 
	C111.715561,179.118851 111.011192,180.175919 110.632149,181.226044 
	C108.381233,187.462204 106.243225,193.739090 103.825226,200.276978 
	C101.941391,205.053802 100.235344,209.533813 98.674942,214.064011 
	C96.932396,219.123001 98.176193,221.786728 103.069054,224.010681 
	C104.404800,224.617844 105.691040,225.333908 107.000000,226.000000 
	C102.310745,226.000000 97.621490,226.000000 92.466118,226.000000 
	C88.701599,221.125946 88.507812,216.213715 90.643806,210.630310 
	C99.688545,186.987701 108.429169,163.228745 117.276543,139.510666 
	C117.612236,138.610718 117.902657,137.693893 118.575378,135.731003 
	C107.538368,141.141434 97.382538,146.179199 87.174683,151.109253 
	C73.681786,157.625824 60.175354,164.115784 46.621693,170.504639 
	C38.666462,174.254501 30.878675,171.941635 26.293764,164.439468 
	C24.568289,161.616104 23.112049,158.554688 22.022371,155.431091 
	C19.485823,148.160034 22.382076,140.542908 29.221556,137.165421 
	C40.560741,131.565872 52.006454,126.170982 63.525654,120.951080 
	C70.782089,117.662834 78.427742,120.500618 82.814537,127.679947 
	C83.846298,129.368484 84.690147,131.171860 85.867989,133.388184 
	C94.260498,130.055466 102.342499,125.995865 110.895210,123.659142 
	C122.275536,120.549881 129.361969,114.212860 131.529373,102.528130 
	C131.828476,100.915611 132.607849,99.392181 133.193420,97.451248 
	C140.159409,79.266663 147.111450,61.464001 154.028564,43.647778 
	C157.946167,33.557289 161.806412,23.444544 165.839020,13.004843 
M75.714554,147.196716 
	C80.065559,143.247498 80.131912,140.471481 76.051346,133.105331 
	C73.449104,128.407822 70.169716,127.233604 65.364388,129.473953 
	C55.429070,134.106018 45.523502,138.802185 35.619236,143.500504 
	C29.283573,146.505966 28.423826,149.387680 31.701605,156.351440 
	C35.135277,163.646393 38.010727,164.973038 44.378689,162.004700 
	C54.622414,157.229706 64.829597,152.376297 75.714554,147.196716 
z"/>
<path fill="#CC858A" opacity="1.000000" stroke="none" 
	d="
M176.205948,108.075188 
	C190.617844,100.458054 205.327240,93.116158 219.992950,85.687996 
	C221.886490,84.728920 223.553818,83.323273 225.662964,82.062248 
	C226.000000,94.020897 226.000000,106.041786 226.000000,118.531342 
	C214.928986,116.906860 203.830093,114.948235 192.798721,112.663734 
	C187.298752,111.524742 181.922272,109.789337 176.205948,108.075188 
z"/>
<path fill="#CC858A" opacity="1.000000" stroke="none" 
	d="
M107.437500,226.000000 
	C105.691040,225.333908 104.404800,224.617844 103.069054,224.010681 
	C98.176193,221.786728 96.932396,219.123001 98.674942,214.064011 
	C100.235344,209.533813 101.941391,205.053802 104.107620,200.397064 
	C105.276398,202.463730 105.332428,205.167908 106.681129,206.811066 
	C110.032143,210.893661 115.773048,209.963409 119.385277,205.508957 
	C121.050117,203.455963 123.306114,201.882370 125.294067,200.091415 
	C122.792023,207.218567 120.392441,214.384705 117.706718,221.441956 
	C117.127525,222.963867 115.516899,224.093231 114.190689,225.701721 
	C111.958336,226.000000 109.916664,226.000000 107.437500,226.000000 
z"/>
<path fill="#CC858A" opacity="1.000000" stroke="none" 
	d="
M155.913498,104.844467 
	C151.294724,107.194656 146.536377,109.206215 140.512329,111.752846 
	C141.861252,107.445518 142.774277,104.530060 143.886353,101.302460 
	C147.981552,102.162163 151.877747,103.334000 155.913498,104.844467 
z"/>
<path fill="#CC858A" opacity="1.000000" stroke="none" 
	d="
M75.383392,147.376373 
	C64.829597,152.376297 54.622414,157.229706 44.378689,162.004700 
	C38.010727,164.973038 35.135277,163.646393 31.701605,156.351440 
	C28.423826,149.387680 29.283573,146.505966 35.619236,143.500504 
	C45.523502,138.802185 55.429070,134.106018 65.364388,129.473953 
	C70.169716,127.233604 73.449104,128.407822 76.051346,133.105331 
	C80.131912,140.471481 80.065559,143.247498 75.383392,147.376373 
z"/>
<path fill="#CC858A" opacity="1.000000" stroke="none" 
	d="
M125.539261,199.840164 
	C123.306114,201.882370 121.050117,203.455963 119.385277,205.508957 
	C115.773048,209.963409 110.032143,210.893661 106.681129,206.811066 
	C105.332428,205.167908 105.276398,202.463730 104.349655,200.122375 
	C106.243225,193.739090 108.381233,187.462204 110.632149,181.226044 
	C111.011192,180.175919 111.715561,179.118851 112.548775,178.379654 
	C115.376541,175.870850 121.897232,176.712769 127.042809,180.141937 
	C130.525833,182.463150 130.957764,185.610840 129.541092,189.309235 
	C128.236267,192.715652 127.032654,196.160812 125.539261,199.840164 
z"/>
</svg>