<?xml version="1.0" encoding="UTF-8"?>
<!DOCTYPE svg PUBLIC "-//W3C//DTD SVG 1.1//EN" "http://www.w3.org/Graphics/SVG/1.1/DTD/svg11.dtd">
<!-- Creator: CorelDRAW 2020 (64 Bit) -->
<svg xmlns="http://www.w3.org/2000/svg" xml:space="preserve" width="363.075mm" height="96.5977mm" version="1.1" style="shape-rendering:geometricPrecision; text-rendering:geometricPrecision; image-rendering:optimizeQuality; fill-rule:evenodd; clip-rule:evenodd"
viewBox="0 0 51136.07 13604.96"
 xmlns:xlink="http://www.w3.org/1999/xlink"
 xmlns:xodm="http://www.corel.com/coreldraw/odm/2003">
 <defs>
  <style type="text/css">
   <![CDATA[
    .fil0 {fill:#492132;fill-rule:nonzero}
    .fil1 {fill:#FFFFFF;fill-rule:nonzero}
   ]]>
  </style>
 </defs>
 <g id="Camada_x0020_1">
  <metadata id="CorelCorpID_0Corel-Layer"/>
  <path class="fil0" d="M2602.85 3591.85c-20.52,20.46 -56.39,30.7 -107.62,30.7 -3.44,0 -11.97,-1.65 -25.63,-5.07 -13.68,-3.42 -22.27,-5.17 -25.59,-5.17 -95.7,51.22 -239.19,146.93 -430.43,286.94 -420.2,321.12 -783.15,787.46 -1088.82,1398.89 -305.82,611.48 -487.72,1229.77 -545.75,1854.87 -54.66,659.32 35.87,1204.12 271.58,1634.55 256.18,468.04 686.6,758.36 1291.22,871.09 604.63,99.08 1181.89,-94 1731.96,-579.03 526.01,-464.47 934.24,-1076 1224.6,-1834.4 297.22,-782.21 406.52,-1485.95 327.98,-2111.1 -88.89,-638.66 -358.74,-1082.83 -809.59,-1332.21 61.46,99.18 107.57,186.22 138.32,261.3 0,3.48 1.65,13.76 5.13,30.75 3.32,17.14 5.11,29.07 5.11,35.87 0,47.9 -18.83,89.74 -56.39,125.56 -37.6,35.87 -78.6,53.82 -122.93,53.82 -34.22,0 -68.41,-11.97 -102.49,-35.87 -34.18,-23.9 -56.39,-51.22 -66.63,-82.04l-51.22 -102.39c-30.76,-71.76 -87.15,-159.7 -169.08,-263.94 -82.04,-104.14 -172.56,-188.66 -271.58,-253.64 -71.74,-44.38 -135,-75.12 -189.6,-92.22 -181.11,-37.56 -314.32,-56.34 -399.62,-56.34 -187.97,0 -365.64,56.34 -532.93,169.08zm1050.41 -461.14c239.08,47.86 517.58,150.31 835.22,307.36 314.2,146.97 562.73,364.69 745.53,653.36 182.74,288.68 298.02,619.22 345.86,991.47 92.21,707.14 -18.79,1474.08 -333.05,2300.7 -310.88,819.81 -758.35,1477.51 -1342.5,1972.77 -652.48,553.35 -1328.9,770.23 -2029.12,650.74 -355.3,-61.46 -663.56,-182.8 -924.91,-363.81 -261.35,-181.09 -467.14,-406.52 -617.45,-676.36 -276.64,-495.27 -380.93,-1111.92 -312.51,-1849.8 64.83,-679.76 258.71,-1344.15 581.56,-1993.2 322.87,-649.04 719.95,-1152.89 1191.32,-1511.62 440.66,-334.74 857.43,-519.17 1250.24,-553.39 13.68,0 34.18,-1.65 61.52,-5.13 27.32,-3.32 47.79,-5.11 61.51,-5.11 167.35,0 329.61,27.38 486.78,82.03z"/>
  <path class="fil0" d="M7009.5 3438.08c-102.5,102.5 -198.15,259.71 -286.88,471.41 -201.69,468.1 -355.41,1048.76 -461.24,1742.22 -51.22,365.54 -81.93,732.71 -92.21,1101.68 6.8,-13.66 17.08,-33.34 30.75,-58.97 13.58,-25.63 23.86,-45.21 30.72,-58.93 242.51,-403.05 473.1,-840.39 691.77,-1311.76 259.56,-553.45 406.48,-990.57 440.66,-1311.74 20.46,-187.81 13.61,-338.16 -20.52,-450.89 -27.38,-92.27 -90.53,-158.9 -189.56,-199.84l-20.46 -10.28c-24,0 -65,29.06 -123.03,87.1zm271.58 -420.14l10.24 10.24c201.57,81.98 334.72,222.09 399.67,420.19 51.28,153.73 64.84,355.3 40.98,604.63 -37.6,317.74 -198.14,794.21 -481.59,1429.58 -177.73,396.3 -413.44,840.39 -707.18,1332.23 -27.38,51.27 -121.28,208.43 -281.82,471.41 -13.66,27.38 -26.48,53.07 -38.41,76.87 -12.01,23.94 -22.25,44.46 -30.75,61.46 -8.55,17.18 -12.77,27.42 -12.77,30.8 0,20.52 1.63,50.44 5.07,89.63 3.38,39.35 5.11,69.21 5.11,89.69 30.76,290.4 87.15,542.37 169.14,755.81 81.98,213.56 179.36,366.33 292.05,458.55 225.43,184.49 635.38,227.26 1229.73,128.14 444.09,-71.74 1052.14,-264.73 1824.21,-579.04 826.63,-334.72 1600.38,-712.24 2321.17,-1132.38 27.32,-13.62 58.08,-20.52 92.22,-20.52 44.37,0 85.35,18.83 122.97,56.39 37.6,37.66 56.39,78.6 56.39,122.93 0,68.41 -32.55,121.32 -97.34,158.88l-312.57 174.21c-204.95,116.17 -503.97,270.78 -896.74,463.72 -392.86,193.02 -775.49,364.68 -1147.79,514.99 -758.35,304.08 -1392.05,498.79 -1900.98,584.15 -707.12,119.49 -1214.42,58.14 -1521.82,-184.49 -324.64,-256.22 -521.06,-746.38 -589.32,-1470.6 0,-17.04 -3.42,-45.27 -10.24,-84.56 -6.84,-39.2 -10.23,-67.42 -10.23,-84.52 -6.92,-13.66 -10.24,-37.56 -10.24,-71.79l0 -40.94c-27.32,-536.27 8.49,-1132.44 107.57,-1788.29 105.83,-713.94 269.84,-1325.36 491.93,-1834.39 116.07,-273.26 230.54,-466.3 343.33,-578.99 122.93,-123.03 252.75,-184.47 389.44,-184.47 44.32,0 93.86,6.84 148.56,20.46z"/>
  <path class="fil0" d="M12809.93 5892.51c40.93,47.9 61.45,107.62 61.45,179.32 0,27.38 -4.31,53.8 -12.82,79.45 -8.53,25.63 -18.77,48.63 -30.7,69.15 -12.03,20.52 -17.93,32.55 -17.93,35.87 -41,85.42 -104.29,148.62 -189.6,189.6 -44.42,30.76 -83.73,46.11 -117.86,46.11 -34.18,0 -71.74,-8.45 -112.74,-25.63 -27.38,-10.24 -53.76,-34.08 -79.45,-71.74 -25.53,-37.52 -38.41,-71.7 -38.41,-102.46 0,-64.89 13.62,-138.36 41,-220.35 10.23,-44.32 39.25,-97.39 87.14,-158.86 58.04,-71.69 131.48,-107.62 220.32,-107.62 78.55,0 141.7,29.13 189.6,87.15zm-620.04 1352.74c44.38,0 85.36,18.79 122.98,56.35 37.56,37.66 56.39,78.6 56.39,122.97l0 40.98 -15.41 66.63c-10.24,44.48 -21.37,109.36 -33.28,194.73 -12.03,85.45 -17.94,169.08 -17.94,251.11 0,348.34 109.31,618.29 327.98,809.59 290.26,252.8 804.46,302.33 1542.3,148.56 953.06,-201.49 2225.52,-758.36 3817.4,-1670.39 27.34,-13.66 59.73,-20.52 97.34,-20.52 47.84,0 89.69,18.79 125.56,56.35 35.87,37.66 53.76,78.6 53.76,122.97 0,68.42 -32.45,121.28 -97.34,158.84 -1574.83,901.91 -2883.11,1467.27 -3924.97,1696.08 -826.78,181.05 -1441.64,107.62 -1844.64,-220.36 -300.64,-245.95 -450.95,-602.84 -450.95,-1070.87 0,-232.29 23.96,-437.24 71.74,-614.91 23.9,-85.36 76.87,-128.1 158.8,-128.1l10.28 0z"/>
  <path class="fil0" d="M19863.12 7309.29c-8.55,8.59 -17.89,30 -28.17,64.04 -27.38,85.46 -23.94,193.08 10.28,322.81l15.35 30.76c75.08,-170.77 116.07,-281.82 122.97,-333.05 6.82,-47.8 10.24,-76.87 10.24,-87.15l-71.69 -10.18c-30.82,0 -50.49,4.27 -58.98,12.77zm427.85 -222.85c61.56,88.84 78.55,215.19 51.28,379.16 -34.2,174.19 -129.88,391.17 -286.94,650.73 146.81,204.95 333.03,375.82 558.51,512.41 187.81,112.74 393.67,197.25 617.51,253.66 223.68,56.34 496.1,76.86 817.12,61.45 321.17,-15.35 661.91,-76.81 1022.28,-184.43 360.43,-107.56 773.81,-286.98 1240.07,-538.04 466.3,-251.06 952.23,-566.17 1457.78,-945.37 20.52,-20.52 58.08,-30.76 112.79,-30.76 47.75,0 89.58,18.83 125.5,56.39 35.82,37.66 53.7,78.6 53.7,122.93 0,58.13 -23.89,105.98 -71.59,143.49 -645.72,485.13 -1262.32,869.46 -1849.8,1152.91 -587.63,283.6 -1110.28,460.38 -1568.03,530.34 -457.71,70.05 -861.75,77.76 -1211.74,23.11 -350.29,-54.66 -661.96,-164.02 -935.19,-327.98 -235.7,-143.49 -428.74,-312.57 -578.99,-507.3 -365.64,526.13 -707.18,956.5 -1024.82,1291.29 -64.98,64.83 -121.33,100.7 -169.12,107.62 -75.18,10.24 -145.19,-3.48 -210.02,-41.04 -71.8,-51.22 -135.05,-143.45 -189.66,-276.65 -78.65,-215.23 -134.94,-483.4 -169.08,-804.46 -47.9,-413.34 -78.6,-840.39 -92.21,-1281.05l0 -10.28c0,-44.32 18.73,-85.27 56.34,-122.93 37.56,-37.56 78.56,-56.39 122.97,-56.39 47.8,0 89.74,17.14 125.56,51.28 35.87,34.18 53.76,73.48 53.76,117.8l10.28 179.42c3.38,116.17 12.83,278.39 28.18,486.72 15.35,208.43 33.34,401.47 53.86,579.04 23.8,242.61 76.81,488.57 158.8,737.83 0,3.48 1.68,10.24 5.15,20.52 3.34,10.24 5.07,17.1 5.07,20.52 338.22,-372.34 676.38,-813.01 1014.58,-1322.04 -47.89,-95.59 -88.89,-199.83 -123.01,-312.57 -54.66,-215.19 -54.66,-397.88 0,-548.28 30.8,-85.36 83.72,-157.95 158.9,-217.77 75.07,-59.67 158.84,-91.38 251.01,-94.8 187.85,0 314.32,47.89 379.2,143.53z"/>
  <path class="fil0" d="M26434.7 6907.05c-81.98,54.7 -148.56,124.76 -199.84,210.12 -20.52,30.75 -44.42,73.48 -71.74,128.08 235.71,-122.97 403.05,-227.16 502.23,-312.51 3.32,-3.44 8.44,-9.39 15.3,-17.99 6.8,-8.51 11.93,-14.52 15.41,-17.94 -17.14,-10.24 -54.7,-20.46 -112.79,-30.7 -3.38,0 -8.55,-1.69 -15.35,-5.17 -6.92,-3.32 -11.99,-5.07 -15.41,-5.07 -34.14,0 -73.43,17.04 -117.8,51.18zm158.84 -399.62c23.9,3.38 40.98,5.11 51.28,5.11 119.49,23.9 206.64,51.22 261.29,81.98 92.27,54.7 148.62,124.72 169.08,210.07 17.1,78.66 6.8,155.47 -30.8,230.6 -27.28,54.7 -73.43,107.56 -138.28,158.8 -102.5,92.27 -212.66,176.77 -330.51,253.68 -117.8,76.87 -210.91,122.18 -279.23,135.74l-82.03 20.48c-88.89,20.52 -153.63,30.8 -194.71,30.8 -61.52,0 -58.08,-32.45 10.32,-97.34 17,-17.08 25.59,-27.32 25.59,-30.8 -54.65,187.95 -85.46,324.6 -92.27,409.91 -34.18,324.65 18.73,587.63 158.84,789.11 150.25,215.25 401.37,322.87 753.23,322.87 556.73,-10.3 1164.84,-108.42 1824.17,-294.64 659.24,-186.12 1254.48,-407.43 1785.66,-663.55 531.2,-256.23 986.47,-520.92 1365.67,-794.23 20.41,-20.52 54.51,-30.76 102.45,-30.76 47.8,0 89.63,18.83 125.5,56.35 35.87,37.66 53.82,78.6 53.82,122.97 0,58.14 -23.96,105.98 -71.76,143.49 -406.52,290.37 -879.63,567.11 -1419.32,830.11 -539.79,263.08 -1152.11,491.14 -1836.98,684.02 -684.91,193.08 -1324.53,294.63 -1918.91,304.92 -474.85,10.23 -831.89,-150.31 -1070.93,-481.66 -177.63,-245.94 -247.68,-585.84 -210.12,-1019.69 30.76,-372.3 140.11,-695.11 327.98,-968.43 88.73,-140.01 189.54,-244.21 302.29,-312.57 109.31,-68.32 211.76,-102.46 307.46,-102.46 10.18,0 27.32,1.75 51.22,5.13z"/>
  <path class="fil0" d="M32634.69 5892.51c41.03,47.9 61.51,107.62 61.51,179.32 0,27.38 -4.27,53.8 -12.77,79.45 -8.59,25.63 -18.83,48.63 -30.75,69.15 -12.03,20.52 -17.99,32.55 -17.99,35.87 -40.94,85.42 -104.25,148.62 -189.5,189.6 -44.48,30.76 -83.77,46.11 -117.91,46.11 -34.18,0 -71.69,-8.45 -112.69,-25.63 -27.42,-10.24 -53.8,-34.08 -79.49,-71.74 -25.59,-37.52 -38.37,-71.7 -38.37,-102.46 0,-64.89 13.56,-138.36 41,-220.35 10.18,-44.32 39.2,-97.39 87.1,-158.86 58.03,-71.69 131.42,-107.62 220.36,-107.62 78.49,0 141.64,29.13 189.5,87.15zm-619.98 1352.74c44.37,0 85.36,18.79 123.03,56.35 37.56,37.66 56.34,78.6 56.34,122.97l0 40.98 -15.39 66.63c-10.24,44.48 -21.37,109.36 -33.29,194.73 -12.03,85.45 -17.89,169.08 -17.89,251.11 0,348.34 109.21,618.29 327.92,809.59 290.27,252.8 804.42,302.33 1542.3,148.56 953.07,-201.49 2225.52,-758.36 3817.45,-1670.39 27.22,-13.66 59.67,-20.52 97.34,-20.52 47.8,0 89.59,18.79 125.5,56.35 35.93,37.66 53.82,78.6 53.82,122.97 0,68.42 -32.45,121.28 -97.34,158.84 -1574.83,901.91 -2883.17,1467.27 -3924.97,1696.08 -826.78,181.05 -1441.64,107.62 -1844.69,-220.36 -300.65,-245.95 -450.9,-602.84 -450.9,-1070.87 0,-232.29 23.9,-437.24 71.7,-614.91 23.9,-85.36 76.86,-128.1 158.84,-128.1l10.24 0z"/>
  <path class="fil0" d="M39377.97 7214.52l20.52 0 0 10.24 10.24 0 10.23 0 10.3 10.24 10.23 10.24 10.2 0 15.39 10.23 20.52 10.28c27.28,27.38 41,70.07 41,128.1 0,27.38 -6.86,54.7 -20.52,82.03 -23.9,47.86 -58.08,123.83 -102.46,228.01 -44.42,104.19 -98.22,264.73 -161.38,481.66 -63.29,216.92 -94.84,400.51 -94.84,550.82 0,136.63 20.51,240.87 61.51,312.57 51.22,88.89 114.38,145.24 189.6,169.08 280.08,95.69 742.95,5.17 1388.57,-271.58 283.56,-122.97 1716.52,-686.6 4299.09,-1690.96 6.76,0 17.89,-1.63 33.29,-5.07 15.35,-3.37 26.38,-5.15 33.28,-5.15 47.8,0 90.53,18.83 128.15,56.39 37.51,37.66 56.34,78.59 56.34,122.97 0,30.75 -11.13,64.04 -33.34,99.91 -22.21,35.87 -48.69,58.93 -79.35,69.21 -58.18,23.9 -463.76,181.07 -1217,471.37 -753.23,290.42 -1420.22,549.18 -2000.94,776.29 -580.77,227.22 -939.46,369.86 -1076.04,427.85 -731.02,317.74 -1279.36,413.29 -1644.75,286.99 -181.21,-61.52 -310.94,-174.25 -389.48,-338.22 -78.6,-164.01 -117.81,-324.5 -117.81,-481.65 0,-245.95 66.53,-565.32 199.78,-958.2 -102.45,13.68 -245.94,6.86 -430.43,-20.46 -92.17,-20.52 -220.3,-54.6 -384.26,-102.5 -6.92,0 -49.55,-13.61 -128.15,-40.98 -6.84,-3.38 -15.35,-5.17 -25.63,-5.17l-5.11 -5.11 20.46 0 -20.46 0c-44.42,0 -85.36,-18.69 -122.98,-56.35 -37.56,-37.56 -56.34,-78.55 -56.34,-122.97 0,-47.8 17.04,-89.69 51.22,-125.56 34.14,-35.87 73.43,-53.8 117.9,-53.8 40.94,0 88.74,6.9 143.45,20.51 10.24,3.48 30.76,10.24 61.52,20.48 30.7,10.28 56.34,17.14 76.81,20.46 198.09,58.14 314.26,90.63 348.44,97.39 167.33,27.38 281.87,34.22 343.27,20.52 92.27,-20.52 165.7,-66.63 220.4,-138.38 34.04,-47.8 87.05,-71.7 158.8,-71.7l30.76 0z"/>
  <path class="fil0" d="M45537.06 7404.09c-488.41,239.13 -789.06,550.03 -901.79,932.61 -20.48,68.36 -30.82,134.94 -30.82,199.78 65,0 176,-42.63 333.1,-128.1 184.47,-109.25 369.75,-256.97 555.93,-443.24 186.18,-186.12 301.44,-345.86 345.91,-479.11 13.62,-40.94 31.55,-85.27 53.82,-133.17 22.15,-47.8 36.62,-83.67 43.52,-107.62 -167.39,58.13 -300.64,111.05 -399.67,158.84zm840.33 -558.52c20.52,27.38 30.76,63.25 30.76,107.63l0 20.46c0,34.18 -3.44,58.14 -10.24,71.74 -47.9,95.7 -90.58,292.05 -128.14,589.28 -54.7,440.66 -15.35,768.59 117.86,983.78 71.74,126.39 179.36,213.54 322.85,261.35 194.73,61.46 433.81,61.46 717.42,0 754.87,-160.49 1789.88,-695.11 3105.1,-1603.8 20.52,-20.52 54.56,-30.76 102.46,-30.76 44.37,0 85.35,18.83 123.01,56.34 37.52,37.66 56.39,78.66 56.39,122.98 0,54.7 -27.42,102.55 -82.07,143.49 -1356.18,932.55 -2433.91,1485.95 -3233.21,1660.2 -362.1,71.7 -662.76,71.7 -901.84,0 -235.71,-68.27 -409.91,-208.33 -522.65,-420.19 -116.21,-198.05 -179.36,-435.55 -189.6,-712.25 -204.95,232.37 -461.19,442.45 -768.59,630.27 -245.95,143.45 -456.02,191.33 -630.27,143.45 -54.6,-17.06 -104.19,-48.65 -148.62,-94.76 -44.37,-46.11 -71.69,-98.18 -81.97,-156.31 -20.48,-112.69 -10.24,-242.47 30.75,-389.4 136.69,-481.69 500.49,-865.96 1091.45,-1152.96 273.22,-133.21 529.45,-220.25 768.54,-261.29 41.04,-20.48 71.79,-30.76 92.21,-30.76 64.94,0 111,20.58 138.38,61.51z"/>
  <path class="fil1" d="M3692.93 347.03c48.98,27.18 103.34,65.2 163.36,114.38 114.28,81.49 228.66,94.55 342.93,38.66 114.38,-55.65 175.63,-153.04 183.78,-292.01l-4.03 -163.26 97.88 0 12.32 1061.64 3.97 4.13 -53.01 0 -53.01 0 -53.21 0c-198.7,-285.89 -441.61,-514.35 -728.9,-685.91 -287.18,-171.57 -614.51,-265.47 -981.89,-281.77 -362.1,0 -667.03,83.01 -914.67,249.12 -247.78,165.9 -446.47,385.06 -596.13,657.29 -149.8,272.18 -258.02,573.72 -324.65,904.43 -66.72,330.91 -100.05,660.91 -100.05,990.34 0,329.32 33.34,659.38 100.05,990.03 66.63,330.75 174.85,632.24 324.65,904.41 149.66,272.23 348.34,491.4 596.13,657.49 247.64,166.15 552.56,249.18 914.67,249.18 283.06,0 533.52,-52.36 751.25,-157.21 217.77,-104.79 404.95,-246.49 561.51,-424.81 156.5,-178.28 286.39,-383.07 389.88,-614.42l306.22 0c-87.05,160.69 -186.43,307.65 -298.06,440.92 -220.42,266.81 -477.09,475.73 -769.64,626.83 -292.64,151.09 -606.36,226.52 -941.15,226.52 -332.25,0 -644.52,-75.42 -937.22,-226.52 -292.6,-151.09 -549.13,-360.02 -769.64,-626.83 -217.81,-263.94 -389.38,-570.94 -514.44,-920.77 -125.26,-349.79 -187.91,-724.87 -187.91,-1124.83 0,-400.27 62.65,-775.11 187.91,-1124.94 125.05,-349.78 296.63,-656.8 514.44,-920.98 220.52,-266.71 477.04,-475.69 769.64,-626.79 292.7,-150.9 604.97,-226.56 937.22,-226.56 383.82,0 740.38,100.66 1069.79,302.23z"/>
  <polygon class="fil1" points="14679.3,48.91 15055.03,48.91 15055.03,150.93 14679.3,147 14679.3,5741.05 15055.03,5745.18 15055.03,5843.01 13838.13,5839.09 13838.13,5736.88 14213.85,5741.05 14213.85,147 13838.13,147 13838.13,44.8 14230.15,48.91 "/>
  <path class="fil1" d="M18114.79 571.59c204.16,-242.16 484.54,-394.55 841.19,-457.41 24.59,-5.41 50.32,-9.39 77.6,-12.17 392.02,-32.59 739.12,54.51 1041.21,261.35 27.18,19.08 54.46,39.51 81.73,61.27 73.49,51.77 147.62,59.82 222.54,24.34 74.79,-35.22 114.93,-99.12 120.45,-191.73l4.01 -257.23 106.24 0 -12.32 1053.4 -110.21 0c-89.83,-250.47 -249.06,-453.34 -477.78,-608.35 -277.64,-190.64 -600.15,-270.89 -967.72,-240.88 -24.45,2.63 -47.6,5.46 -69.42,8.1 -196.05,32.59 -350.53,99.32 -463.41,199.98 -112.98,100.87 -188.52,224.59 -226.71,371.55 -68.03,277.84 -54.46,526.13 40.89,745.29 95.19,219.16 240.92,422.62 436.89,610.53 196.01,187.81 411.05,371.55 645.21,551.11 288.49,220.46 553.96,456.82 796.28,708.57 242.16,251.75 401.4,543.7 477.62,875.71l0 4.13c5.46,22.01 8.25,43.72 8.25,65.48 38.06,378.3 -61.27,708.95 -298.06,992.02 -236.85,280.47 -562.2,457.45 -975.93,530.94 -30.06,2.63 -58.63,6.76 -85.81,12.17 -457.3,35.42 -858.87,-65.24 -1204.58,-301.99 -27.18,-16.49 -53.01,-34.13 -77.51,-53.27 -81.63,-57.18 -162.73,-65.87 -242.92,-26.52 -80.34,39.55 -123.21,108.26 -128.63,206.33l0 163.28 -106.22 0 0 -939.22 0 -6.11 0 -6.11 106.22 0 4.03 0c114.38,236.81 283.05,431.58 506.34,584.01 326.68,220.46 703.7,313.06 1131.1,277.64 27.18,-2.63 54.36,-5.46 81.69,-8.3 310.33,-54.35 537.55,-173.46 681.88,-357.19 144.29,-183.74 217.73,-402.22 220.46,-655.31 -2.73,-353.95 -110.21,-653.96 -322.51,-900.5 -212.3,-246.33 -472.37,-485.03 -780.02,-716.62 -171.4,-136.08 -345.65,-282.42 -522.63,-438.97 -176.98,-156.5 -342.99,-330.01 -498.1,-520.45 -122.48,-152.43 -213.05,-319.82 -271.54,-502.23 -58.58,-182.39 -74.28,-368.92 -47,-559.41 35.38,-204.36 121.14,-386.55 257.22,-547.24z"/>
  <polygon class="fil1" points="25409.1,5741.04 25784.83,5741.04 25784.83,5839.11 24568.01,5843.03 24568.01,5741.04 24943.64,5741.04 24943.64,146.98 23355.18,146.98 23359.31,510.33 23257.21,510.33 23257.21,48.9 25180.45,48.9 27095.58,48.9 27095.58,510.33 26997.55,510.33 26997.55,146.98 25409.1,146.98 "/>
  <polygon class="fil1" points="30449.54,48.91 30825.26,48.91 30825.26,150.93 30449.54,147 30449.54,5741.05 30825.26,5745.18 30825.26,5843.01 29608.35,5839.09 29608.35,5736.88 29984.07,5741.05 29984.07,147 29608.35,147 29608.35,44.8 30000.37,48.91 "/>
  <polygon class="fil1" points="41379.57,5741.04 41771.59,5745.15 41771.59,5843.03 40881.43,5839.11 40881.43,5741.04 41277.52,5741.04 41277.52,355.06 41273.35,351.19 41277.52,220.52 41277.52,146.98 40889.57,146.98 40889.57,44.77 41277.52,48.9 41277.52,44.77 41665.37,44.77 44646.09,5357.06 44642.08,146.98 44245.93,146.98 44245.93,48.9 45140.18,48.9 45140.18,146.98 44740.05,146.98 44744.18,5843.03 44646.09,5843.03 44352.16,5843.03 41375.44,530.75 "/>
  <polygon class="fil1" points="48494.18,2899.01 50380.69,2886.84 50380.69,2984.91 48494.18,3001.22 48494.18,5741.02 51033.97,5741.02 51033.97,5369.53 51131.94,5369.53 51136.07,5843.02 47652.95,5839.11 47652.95,5741.02 48028.67,5741.02 48028.67,146.97 47652.95,146.97 47652.95,48.94 51136.07,44.82 51131.94,518.56 51033.97,518.56 51033.97,146.97 48494.18,146.97 "/>
  <path class="fil1" d="M10062.8 3924.7c381.13,-73.49 702.35,-257.22 963.71,-551.37 157.8,-176.73 281.71,-382.43 371.5,-616.6 89.83,-233.91 134.84,-485.88 134.84,-755.26 0,-266.77 -45.01,-517.87 -134.84,-753.33 -89.79,-235.47 -213.7,-441.61 -371.5,-618.74 -304.98,-342.93 -684.67,-532.03 -1139.3,-567.46l0 -4.11 -24.45 0 -65.34 0 -8.25 0 -1964.02 0 0 98.03 375.67 0 0 5598.18 -375.67 0 0 98.03 841.23 -2.34 0 -1904.59 0.04 0 0 -98.03 -0.04 0 0 -3691.26 1184.11 4.13c310.39,16.34 553.3,112.83 728.84,289.81 175.59,176.98 298.75,404.14 369.51,682.04 70.8,277.64 106.22,567.46 106.22,869.65 0,231.33 -19.83,457.2 -59.28,677.91 -39.45,220.45 -106.81,417.85 -202.07,592 -95.35,174.11 -223.94,313.72 -385.91,418.51 -161.93,104.83 -365.5,157.21 -610.39,157.21l-291.26 0 1022.09 1911.04 -318.48 0 0 97.84 1216.86 0 0 -97.84 -334.84 0 -1028.99 -1833.43z"/>
  <polygon class="fil1" points="38005.16,5741.04 36032.93,44.77 35706.19,44.77 35706.19,48.9 35698.05,48.9 33725.82,5741.04 33337.93,5741.04 33337.93,5839.11 34228.15,5843.03 34228.15,5741.04 33832.06,5741.04 35673.6,424.62 37511.13,5741.04 37151.71,5741.04 37151.71,5839.11 38368.56,5839.11 38368.56,5741.04 "/>
  <polygon class="fil0" points="1197.48,13394.67 1197.48,13587.16 269.6,13587.16 269.6,12349.83 1172.89,12349.83 1172.89,12542.32 499.35,12542.32 499.35,12864.38 1096.92,12864.38 1096.92,13053.13 499.35,13053.13 499.35,13394.67 "/>
  <path class="fil0" d="M1914.29 13563.97c-88.79,-26.87 -159.39,-62.96 -211.12,-107.62l79.51 -178.42c50.67,40.14 112.79,72.83 186.46,98.12 73.69,25.24 147.57,38.06 221.85,38.06 91.91,0 160.63,-14.84 205.99,-44.27 45.31,-29.41 68.07,-68.32 68.07,-116.76 0,-35.18 -12.82,-64.59 -38.11,-87.35 -25.18,-23.15 -57.34,-40.98 -96.18,-54.21 -38.91,-12.82 -91.97,-27.32 -159.19,-43.87 -94.41,-22.35 -170.57,-45.11 -228.95,-67.52 -58.34,-22.37 -108.42,-57.08 -150.25,-105.14 -41.84,-47.59 -62.72,-112.19 -62.72,-193.28 0,-68.32 18.63,-130.83 55.66,-186.71 37.06,-55.9 93.15,-100.22 167.88,-133.31 74.93,-33.14 166.39,-49.69 274.87,-49.69 75.56,0 149.64,9.49 222.74,28.56 73.03,18.63 136.18,45.97 189.15,81.14l-72.45 178.42c-54.2,-31.89 -110.74,-55.89 -169.73,-72.43 -58.97,-16.55 -116.05,-24.84 -171.36,-24.84 -90.87,0 -158.35,15.31 -202.42,45.96 -44.32,31.06 -66.24,71.6 -66.24,122.14 0,35.17 12.63,64.14 37.87,86.49 25.44,22.37 57.53,40.2 96.43,52.97 38.9,13.27 91.91,27.77 158.94,44.32 91.93,21.11 167.45,43.48 226.28,66.22 58.97,23.21 109.26,58.38 151.29,105.14 41.83,47.21 62.76,111 62.76,191.29 0,68.27 -18.63,129.98 -55.7,185.43 -37.27,55.45 -93.36,99.32 -168.93,132.46 -75.34,33.08 -167.25,49.69 -275.71,49.69 -95.39,0 -187.71,-13.68 -276.7,-41z"/>
  <polygon class="fil0" points="3505.98,12544.39 3095.92,12544.39 3095.92,12349.83 4145.98,12349.83 4145.98,12544.39 3735.92,12544.39 3735.92,13587.15 3505.98,13587.15 "/>
  <path class="fil0" d="M5217.08 12007.06l259.95 0 -307.56 242.18 -191.04 0 238.64 -242.18zm383.57 1387.63l0 192.49 -927.93 0 0 -1237.38 903.29 0 0 192.47 -673.53 0 0 322.12 597.52 0 0 188.76 -597.52 0 0 341.54 698.18 0z"/>
  <polygon class="fil0" points="6461.46,12544.39 6051.45,12544.39 6051.45,12349.83 7101.45,12349.83 7101.45,12544.39 6691.41,12544.39 6691.41,13587.15 6461.46,13587.15 "/>
  <polygon class="fil0" points="7628.22,12349.8 7857.96,12349.8 7857.96,13587.12 7628.22,13587.12 "/>
  <path class="fil0" d="M8779.65 13522.59c-100.56,-54.66 -179.66,-130.43 -236.8,-227.28 -57.1,-96.48 -85.66,-205.35 -85.66,-327.02 0,-121.33 28.76,-230.15 86.5,-326.58 57.73,-96.94 137.02,-172.66 237.8,-227.32 100.81,-55.05 213.64,-82.38 338.46,-82.38 101.41,0 193.92,17.79 277.54,52.97 83.62,35.62 154.42,86.94 212.16,154.02l-148.42 139.52c-89.63,-96.49 -199.73,-144.88 -330.55,-144.88 -84.87,0 -161.04,18.63 -228.06,55.89 -67.27,36.82 -119.69,88.55 -157.31,154.38 -37.66,66.24 -56.53,140.76 -56.53,224.39 0,84.01 18.87,158.55 56.53,224.77 37.62,65.79 90.04,117.56 157.31,154.43 67.03,37.25 143.19,55.89 228.06,55.89 130.83,0 240.92,-48.89 330.55,-146.97l148.42 141.56c-57.75,67.07 -128.74,118.41 -213.01,154.02 -84.21,35.18 -177.12,52.97 -278.39,52.97 -125.01,0 -237.84,-27.34 -338.61,-82.38z"/>
  <path class="fil0" d="M10884.26 13120.63l-233.47 -541.07 -231.39 541.07 464.86 0zm75.93 180.07l-618.65 0 -121.93 286.49 -236.95 0 556.77 -1237.38 226.43 0 558.41 1237.38 -240.28 0 -123.81 -286.49z"/>
  <path class="fil0" d="M12671.93 13233.64c-37.01,-36.42 -55.65,-82.38 -55.65,-137.83 0,-54.27 18.63,-99.77 55.65,-136.25 37.27,-36.41 81.79,-54.6 133.56,-54.6 51.91,0 96.63,18.2 134.29,54.6 37.66,36.48 56.69,81.98 56.69,136.25 0,55.45 -19.03,101.41 -56.69,137.83 -37.66,36.42 -82.38,54.65 -134.29,54.65 -51.77,0 -96.29,-18.22 -133.56,-54.65z"/>
  <path class="fil0" d="M14570.38 13563.97c-88.79,-26.87 -159.35,-62.96 -211.12,-107.62l79.51 -178.42c50.67,40.14 112.79,72.83 186.46,98.12 73.69,25.24 147.57,38.06 221.9,38.06 91.93,0 160.64,-14.84 205.95,-44.27 45.31,-29.41 68.13,-68.32 68.13,-116.76 0,-35.18 -12.87,-64.59 -38.11,-87.35 -25.24,-23.15 -57.34,-40.98 -96.24,-54.21 -38.91,-12.82 -91.93,-27.32 -159.15,-43.87 -94.45,-22.35 -170.57,-45.11 -228.95,-67.52 -58.38,-22.37 -108.46,-57.08 -150.25,-105.14 -41.83,-47.59 -62.74,-112.19 -62.74,-193.28 0,-68.32 18.62,-130.83 55.69,-186.71 37.01,-55.9 93.11,-100.22 167.84,-133.31 74.93,-33.14 166.45,-49.69 274.87,-49.69 75.56,0 149.64,9.49 222.74,28.56 73.08,18.63 136.18,45.97 189.15,81.14l-72.45 178.42c-54.2,-31.89 -110.69,-55.89 -169.71,-72.43 -58.98,-16.55 -116.07,-24.84 -171.38,-24.84 -90.87,0 -158.29,15.31 -202.42,45.96 -44.32,31.06 -66.22,71.6 -66.22,122.14 0,35.17 12.62,64.14 37.9,86.49 25.39,22.37 57.53,40.2 96.45,52.97 38.9,13.27 91.91,27.77 158.94,44.32 91.91,21.11 167.45,43.48 226.22,66.22 59.03,23.21 109.31,58.38 151.35,105.14 41.77,47.21 62.7,111 62.7,191.29 0,68.27 -18.63,129.98 -55.65,185.43 -37.27,55.45 -93.36,99.32 -168.94,132.46 -75.32,33.08 -167.24,49.69 -275.71,49.69 -95.43,0 -187.7,-13.68 -276.74,-41z"/>
  <path class="fil0" d="M16655.52 13120.63l-233.47 -541.07 -231.39 541.07 464.86 0zm75.93 180.07l-618.65 0 -121.93 286.49 -236.95 0 556.79 -1237.38 226.42 0 558.41 1237.38 -240.28 0 -123.81 -286.49z"/>
  <path class="fil0" d="M18203.74 12007.06l259.97 0 -307.56 242.18 -190.85 0 238.44 -242.18zm-491.4 1453.86c-95.39,-96.1 -143.04,-233.92 -143.04,-412.75l0 -698.38 229.74 0 0 689.29c0,242.97 104.8,364.29 314.67,364.29 208.63,0 312.72,-121.32 312.72,-364.29l0 -689.29 226.46 0 0 698.38c0,178.83 -47.59,316.65 -142.39,412.75 -94.8,95.98 -227.67,144.04 -398.68,144.04 -170.73,0 -304.03,-48.06 -399.48,-144.04z"/>
  <path class="fil0" d="M19858.37 13392.59c90.62,0 170.56,-17.39 239.43,-52.17 68.96,-34.79 121.93,-84.03 159.19,-148.17 37.07,-64.2 55.7,-139.12 55.7,-223.98 0,-84.42 -18.63,-158.95 -55.7,-223.54 -37.27,-64.14 -90.24,-113.43 -159.19,-148.17 -68.87,-34.83 -148.81,-52.17 -239.43,-52.17l-300.56 0 0 848.19 300.56 0zm-530.3 -1042.76l540.82 0c132.07,0 249.23,25.65 351.88,77.01 102.45,51.34 181.95,123.77 238.49,217.33 56.65,93.5 84.87,201.57 84.87,324.1 0,122.97 -28.22,230.98 -84.87,324.54 -56.53,93.56 -136.04,166 -238.49,217.32 -102.65,51.34 -219.81,77.03 -351.88,77.03l-540.82 0 0 -1237.33z"/>
  <polygon class="fil0" points="22069.52,13394.67 22069.52,13587.16 21141.65,13587.16 21141.65,12349.83 22044.93,12349.83 22044.93,12542.32 21371.39,12542.32 21371.39,12864.38 21968.96,12864.38 21968.96,13053.13 21371.39,13053.13 21371.39,13394.67 "/>
  <path class="fil0" d="M23516.33 13233.64c-37.01,-36.42 -55.65,-82.38 -55.65,-137.83 0,-54.27 18.63,-99.77 55.65,-136.25 37.27,-36.41 81.79,-54.6 133.56,-54.6 51.91,0 96.63,18.2 134.29,54.6 37.66,36.48 56.69,81.98 56.69,136.25 0,55.45 -19.03,101.41 -56.69,137.83 -37.66,36.42 -82.38,54.65 -134.29,54.65 -51.77,0 -96.29,-18.22 -133.56,-54.65z"/>
  <path class="fil0" d="M26176.07 13228.24c0,-118.84 -89.43,-178.42 -267.46,-178.42l-370.91 0 0 356.85 370.91 0c178.02,0 267.46,-59.24 267.46,-178.43zm-638.36 -697.93l0 341.09 325.4 0c80.29,0 141.6,-14.51 184.63,-43.48 43.03,-28.97 64.59,-70.76 64.59,-126.25 0,-56.69 -21.56,-99.38 -64.59,-128.33 -43.03,-28.97 -104.34,-43.03 -184.63,-43.03l-325.4 0zm809.73 525.72c39.76,52.56 59.63,117.56 59.63,195.42 0,107.17 -40.59,190 -123.38,248.37 -82.77,58.38 -202.81,87.35 -360.96,87.35l-614.76 0 0 -1237.38 579.99 0c145.73,0 258.3,28.62 337.81,85.72 78.65,57.08 118.41,135.73 118.41,235.95 0,61.27 -14.92,115.48 -43.08,162.67 -28.17,47.2 -67.07,83.62 -116.72,109.7 68.72,22.37 122.53,59.63 163.07,112.19z"/>
  <polygon class="fil0" points="27934.57,13394.67 27934.57,13587.16 27006.44,13587.16 27006.44,12349.83 27909.73,12349.83 27909.73,12542.32 27236.2,12542.32 27236.2,12864.38 27834.01,12864.38 27834.01,13053.13 27236.2,13053.13 27236.2,13394.67 "/>
  <polygon class="fil0" points="28544.35,12349.81 28774.09,12349.81 28774.09,13392.58 29421.1,13392.58 29421.1,13587.13 28544.35,13587.13 "/>
  <polygon class="fil0" points="30884.91,13394.67 30884.91,13587.16 29956.79,13587.16 29956.79,12349.83 30860.08,12349.83 30860.08,12542.32 30186.53,12542.32 30186.53,12864.38 30784.35,12864.38 30784.35,13053.13 30186.53,13053.13 30186.53,13394.67 "/>
  <polygon class="fil0" points="32456.32,13392.59 32456.32,13587.16 31401.15,13587.16 31401.15,13433.57 32129.28,12544.4 31413.57,12544.4 31413.57,12349.83 32433.56,12349.83 32433.56,12503.42 31705.37,13392.59 "/>
  <path class="fil0" d="M33746.64 13120.63l-233.06 -541.07 -231.78 541.07 464.85 0zm76.18 180.07l-618.89 0 -121.69 286.49 -236.85 0 556.77 -1237.38 226.08 0 558.82 1237.38 -240.49 0 -123.76 -286.49z"/>
  <path class="fil0" d="M35534.55 13233.64c-37.25,-36.42 -55.89,-82.38 -55.89,-137.83 0,-54.27 18.63,-99.77 55.89,-136.25 36.83,-36.41 81.55,-54.6 133.31,-54.6 51.73,0 96.45,18.2 134.56,54.6 37.6,36.48 56.24,81.98 56.24,136.25 0,55.45 -18.63,101.41 -56.24,137.83 -38.11,36.42 -82.83,54.65 -134.56,54.65 -51.76,0 -96.48,-18.22 -133.31,-54.65z"/>
  <path class="fil0" d="M38193.86 13228.24c0,-118.84 -89.04,-178.42 -267.01,-178.42l-371.36 0 0 356.85 371.36 0c177.97,0 267.01,-59.24 267.01,-178.43zm-638.36 -697.93l0 341.09 325.39 0c80.29,0 141.62,-14.51 184.64,-43.48 43.03,-28.97 64.59,-70.76 64.59,-126.25 0,-56.69 -21.56,-99.38 -64.59,-128.33 -43.03,-28.97 -104.35,-43.03 -184.64,-43.03l-325.39 0zm809.73 525.72c40.15,52.56 60.03,117.56 60.03,195.42 0,107.17 -41,190 -123.77,248.37 -82.38,58.38 -202.42,87.35 -360.57,87.35l-615.15 0 0 -1237.38 579.97 0c146.14,0 258.71,28.62 337.82,85.72 78.65,57.08 118.39,135.73 118.39,235.95 0,61.27 -14.51,115.48 -42.67,162.67 -28.13,47.2 -67.03,83.62 -116.72,109.7 68.32,22.37 122.53,59.63 162.67,112.19z"/>
  <polygon class="fil0" points="39952.8,13394.67 39952.8,13587.16 39024.67,13587.16 39024.67,12349.83 39927.96,12349.83 39927.96,12542.32 39254.41,12542.32 39254.41,12864.38 39852.19,12864.38 39852.19,13053.13 39254.41,13053.13 39254.41,13394.67 "/>
  <polygon class="fil0" points="41699.28,13587.16 41697.63,12767.1 41291.11,13445.56 41188.46,13445.56 40781.92,12777.44 40781.92,13587.16 40562.56,13587.16 40562.56,12349.84 40751.71,12349.84 41243.07,13169.91 41725.76,12349.84 41914.97,12349.84 41916.6,13587.16 "/>
  <polygon class="fil0" points="42535.47,13003.91 43021.44,13003.91 43021.44,13187.69 42535.47,13187.69 "/>
  <polygon class="fil0" points="44566.38,13394.67 44566.38,13587.16 43638.26,13587.16 43638.26,12349.83 44541.55,12349.83 44541.55,12542.32 43868,12542.32 43868,12864.38 44465.82,12864.38 44465.82,13053.13 43868,13053.13 43868,13394.67 "/>
  <path class="fil0" d="M45282.95 13563.97c-89,-26.87 -159.35,-62.96 -211.52,-107.62l79.9 -178.42c50.48,40.14 112.59,72.83 186.32,98.12 73.63,25.24 147.71,38.06 221.8,38.06 91.91,0 160.69,-14.84 205.8,-44.27 45.51,-29.41 68.27,-68.32 68.27,-116.76 0,-35.18 -12.82,-64.59 -38.11,-87.35 -25.18,-23.15 -57.48,-40.98 -96.39,-54.21 -38.9,-12.82 -91.91,-27.32 -159,-43.87 -94.39,-22.35 -170.56,-45.11 -228.9,-67.52 -58.34,-22.37 -108.46,-57.08 -150.25,-105.14 -41.83,-47.59 -62.56,-112.19 -62.56,-193.28 0,-68.32 18.24,-130.83 55.51,-186.71 37.21,-55.9 93.11,-100.22 168.04,-133.31 74.53,-33.14 166.45,-49.69 274.87,-49.69 75.36,0 149.45,9.49 222.74,28.56 72.89,18.63 135.79,45.97 189.15,81.14l-72.45 178.42c-54.15,-31.89 -110.9,-55.89 -169.73,-72.43 -59.17,-16.55 -116.26,-24.84 -171.76,-24.84 -90.67,0 -158.09,15.31 -202.42,45.96 -43.93,31.06 -66.24,71.6 -66.24,122.14 0,35.17 12.82,64.14 38.11,86.49 25.24,22.37 57.49,40.2 96.39,52.97 38.9,13.27 91.91,27.77 159,44.32 91.91,21.11 167.24,43.48 226.42,66.22 58.83,23.21 109.31,58.38 151.09,105.14 41.83,47.21 62.55,111 62.55,191.29 0,68.27 -18.22,129.98 -55.49,185.43 -37.21,55.45 -93.56,99.32 -168.88,132.46 -75.32,33.08 -167.25,49.69 -275.75,49.69 -95.55,0 -187.47,-13.68 -276.5,-41z"/>
  <polygon class="fil0" points="46875.06,12544.39 46464.82,12544.39 46464.82,12349.83 47514.63,12349.83 47514.63,12544.39 47104.82,12544.39 47104.82,13587.15 46875.06,13587.15 "/>
  <path class="fil0" d="M48706.02 13120.63l-233.02 -541.07 -231.84 541.07 464.86 0zm76.17 180.07l-618.89 0 -121.67 286.49 -236.81 0 556.79 -1237.38 226.01 0 558.87 1237.38 -240.53 0 -123.77 -286.49z"/>
  <path class="fil0" d="M50383.4 12607.71c-51.72,-42.22 -127.88,-63.29 -227.66,-63.29l-269.09 0 0 492.97 269.09 0c99.77,0 175.94,-21.51 227.66,-64.53 52.17,-43.08 77.81,-103.9 77.81,-183 0,-78.65 -25.65,-139.52 -77.81,-182.15zm83.22 979.45l-252.95 -362.2c-10.32,1.18 -26.48,1.63 -47.59,1.63l-279.43 0 0 360.57 -229.75 0 0 -1237.32 509.18 0c107.22,0 200.77,17.79 280.27,52.97 79.45,35.17 140.31,86.1 182.94,151.94 42.24,66.22 63.74,144.48 63.74,235.11 0,93.17 -22.75,173.45 -68.31,240.53 -45.13,67.03 -110.5,117.11 -195.38,150.25l284.81 406.52 -247.54 0z"/>
 </g>
</svg>
